<svg xmlns="http://www.w3.org/2000/svg" xmlns:xlink="http://www.w3.org/1999/xlink" width="500" zoomAndPan="magnify" viewBox="0 0 375 374.999991" height="500" preserveAspectRatio="xMidYMid meet" version="1.0"><defs><g/></defs><g fill="#000000" fill-opacity="1"><g transform="translate(60.605014, 270.181662)"><g><path d="M 131.765625 -104.640625 L 82 -54.65625 L 136.65625 0 L 90.15625 0 L 48.34375 -41.8125 L 48.34375 0 L 12.234375 0 L 12.234375 -175.40625 L 48.34375 -175.40625 L 48.34375 -68.125 L 84.84375 -104.640625 Z M 131.765625 -104.640625 "/></g></g></g><g fill="#000000" fill-opacity="1"><g transform="translate(175.005335, 270.181662)"><g><path d="M 19.375 -12.953125 C 9.582031 -23.628906 4.6875 -36.71875 4.6875 -52.21875 C 4.6875 -67.71875 9.582031 -80.835938 19.375 -91.578125 C 29.164062 -102.328125 41.609375 -107.703125 56.703125 -107.703125 C 70.578125 -107.703125 82 -103.347656 90.96875 -94.640625 L 90.96875 -175.40625 L 127.078125 -175.40625 L 127.078125 0 L 91.375 0 L 91.375 -11.828125 L 90.96875 -11.828125 C 82 -1.898438 70.578125 3.0625 56.703125 3.0625 C 41.609375 3.0625 29.164062 -2.273438 19.375 -12.953125 Z M 50.0625 -69.953125 C 45.375 -65.335938 43.03125 -59.425781 43.03125 -52.21875 C 43.03125 -45.007812 45.273438 -39.125 49.765625 -34.5625 C 54.253906 -30.007812 60.171875 -27.734375 67.515625 -27.734375 C 74.585938 -27.734375 80.398438 -30.046875 84.953125 -34.671875 C 89.503906 -39.296875 91.78125 -45.144531 91.78125 -52.21875 C 91.78125 -59.425781 89.4375 -65.335938 84.75 -69.953125 C 80.0625 -74.578125 74.316406 -76.890625 67.515625 -76.890625 C 60.578125 -76.890625 54.757812 -74.578125 50.0625 -69.953125 Z M 50.0625 -69.953125 "/></g></g></g><path stroke-linecap="butt" transform="matrix(2.855985, 0, 0, 2.855985, 17.775262, 308.940126)" fill="none" stroke-linejoin="miter" d="M -0.000638684 4.999544 L 84.432794 4.999544 " stroke="#292929" stroke-width="10" stroke-opacity="1" stroke-miterlimit="4"/><path stroke-linecap="butt" transform="matrix(0, 2.855985, -2.855985, 0, 46.320469, 93.432488)" fill="none" stroke-linejoin="miter" d="M 0.000387077 5.000519 L 82.462904 5.000519 " stroke="#292929" stroke-width="10" stroke-opacity="1" stroke-miterlimit="4"/><path stroke-linecap="butt" transform="matrix(-2.855985, 0, 0, -2.855985, 357.192636, 66.059849)" fill="none" stroke-linejoin="miter" d="M 0.000430673 4.999536 L 84.432496 4.999536 " stroke="#292929" stroke-width="10" stroke-opacity="1" stroke-miterlimit="4"/><path stroke-linecap="butt" transform="matrix(0, -2.855985, 2.855985, 0, 328.650218, 281.567502)" fill="none" stroke-linejoin="miter" d="M 0.000383497 4.99984 L 82.462901 4.99984 " stroke="#292929" stroke-width="10" stroke-opacity="1" stroke-miterlimit="4"/></svg>